<svg width="649" height="1001" viewBox="0 0 649 1001" fill="none" xmlns="http://www.w3.org/2000/svg">
<path d="M358.23 124.343V248.639L431.334 321.841L504.438 395.042L527.14 372.31C595.953 303.488 628.152 271.121 628.194 270.787C628.235 270.495 512.602 154.541 368.644 10.4746L358.23 0.0470909V124.343Z" fill="#C23A97"/>
<path d="M145.291 315.876L0 461.361V585.323C0 653.519 0.124964 709.327 0.333237 709.327C0.499856 709.327 65.8976 643.967 145.708 564.051L290.749 418.816L290.666 294.604L290.541 170.433L145.291 315.876Z" fill="#C23A97"/>
<path d="M503.313 436.209L358.23 581.486V705.782V830.078L503.396 684.718L648.563 539.358L648.48 415.146L648.355 290.975L503.313 436.209Z" fill="#C23A97"/>
<path d="M82.06 667.409C48.0698 701.444 20.3278 729.39 20.4111 729.515C20.536 729.64 81.3518 790.537 155.58 864.906L290.541 1000.05L290.666 875.876L290.75 751.663L217.771 678.587C177.616 638.379 144.584 605.47 144.334 605.47C144.084 605.47 116.092 633.332 82.06 667.409Z" fill="#C23A97"/>
</svg>
