<svg width="258" height="47" viewBox="0 0 258 47" fill="none" xmlns="http://www.w3.org/2000/svg">
<g clip-path="url(#clip0_50_441)">
<path d="M76.1701 0C74.7664 0.000130921 73.3882 0.375725 72.1785 1.08785C70.9687 1.79997 69.9715 2.82269 69.2901 4.05L69.1301 4.38L63.0001 16.54L55.2001 31.91L60.3101 41.98L60.5901 42.53C61.378 43.9236 62.5659 45.0488 64.0001 45.76C65.4326 45.0462 66.6198 43.9217 67.4101 42.53L67.6901 41.98L83.0001 11.77L83.3701 11.04C83.8908 9.84511 84.1062 8.53949 83.9969 7.24066C83.8875 5.94184 83.4569 4.6906 82.7438 3.59957C82.0307 2.50855 81.0574 1.61199 79.9116 0.990625C78.7659 0.369256 77.4835 0.0425781 76.1801 0.04L76.1701 0ZM28.8501 14.63L23.7501 4.63L23.4701 4.08C22.6888 2.68733 21.5032 1.56453 20.0701 0.86C18.6396 1.56344 17.4546 2.6822 16.6701 4.07L16.3801 4.63L1.05013 34.81L0.680131 35.53C-0.146576 37.3813 -0.225902 39.4805 0.458727 41.3889C1.14336 43.2974 2.53897 44.8674 4.35399 45.7711C6.169 46.6747 8.263 46.842 10.1985 46.238C12.1339 45.634 13.7612 44.3055 14.7401 42.53L14.9101 42.21L21.0801 30.05L28.8701 14.69L28.8501 14.63Z" fill="#FF5100"/>
<path d="M76.1501 0C74.7479 0.000864611 73.3713 0.376863 72.1633 1.089C70.9553 1.80114 69.9599 2.82348 69.2801 4.05L69.1101 4.38L62.9401 16.54L55.1301 31.91L60.2501 41.98L60.5301 42.53C61.315 43.9259 62.5037 45.0519 63.9401 45.76C65.3765 45.0519 66.5652 43.9259 67.3501 42.53L67.6401 41.98L83.0001 11.77L83.3601 11.04C83.8808 9.84511 84.0962 8.53949 83.9869 7.24066C83.8775 5.94184 83.4469 4.6906 82.7338 3.59957C82.0207 2.50855 81.0474 1.61199 79.9016 0.990625C78.7559 0.369256 77.4735 0.0425781 76.1701 0.04L76.1501 0Z" fill="url(#paint0_linear_50_441)"/>
<path d="M7.86004 46.58C9.25734 46.5841 10.6305 46.2156 11.838 45.5126C13.0456 44.8095 14.0438 43.7972 14.73 42.58L14.9 42.25L21.08 30.09L28.88 14.72L23.77 4.60001L23.49 4.05001C22.6995 2.65492 21.508 1.5296 20.07 0.820007C18.6358 1.53123 17.4479 2.6564 16.66 4.05001L16.38 4.60001L1.00004 34.81L0.630041 35.54C0.109335 36.7349 -0.106045 38.0405 0.00328964 39.3393C0.112624 40.6382 0.543241 41.8894 1.25637 42.9804C1.96951 44.0715 2.94277 44.968 4.08854 45.5894C5.23431 46.2108 6.51663 46.5374 7.82004 46.54L7.86004 46.58Z" fill="url(#paint1_linear_50_441)"/>
<path d="M28.8501 14.63L23.7501 4.62998L23.4701 4.07998C22.6851 2.68406 21.4965 1.55812 20.0601 0.849978C20.5377 0.616064 21.0366 0.428537 21.5501 0.289978C22.2038 0.124313 22.8756 0.0403396 23.5501 0.039978H34.2301C35.6244 0.0438297 36.993 0.415734 38.1976 1.1181C39.4022 1.82046 40.3999 2.82838 41.0901 4.03998L41.3701 4.58998L55.1801 31.95L60.2701 41.95L60.5501 42.5C61.3438 43.9106 62.5467 45.0473 64.0001 45.76C62.9184 46.2858 61.7327 46.5626 60.5301 46.57H49.7901C48.3972 46.5654 47.0302 46.1931 45.8274 45.4907C44.6246 44.7883 43.6286 43.7808 42.9401 42.57L42.6501 42.02L28.8501 14.63Z" fill="#FF8C44"/>
<path d="M97.0001 23.82C96.9874 23.7066 97.0004 23.5918 97.0381 23.4841C97.0758 23.3764 97.1373 23.2786 97.218 23.1979C97.2986 23.1172 97.3965 23.0557 97.5042 23.018C97.6119 22.9803 97.7267 22.9673 97.8401 22.98H98.4401C98.5508 22.9718 98.6619 22.9882 98.7654 23.0281C98.8689 23.068 98.9623 23.1303 99.0389 23.2107C99.1154 23.291 99.1731 23.3874 99.2079 23.4927C99.2427 23.5981 99.2537 23.7099 99.2401 23.82V25.76C99.2401 26.167 99.1961 26.572 99.1101 26.97H99.1801C99.7679 25.6592 100.723 24.5469 101.93 23.7678C103.137 22.9886 104.544 22.5761 105.98 22.58C110.17 22.58 111.64 24.96 111.64 29.11V39C111.653 39.1134 111.64 39.2282 111.602 39.3359C111.564 39.4436 111.503 39.5415 111.422 39.6221C111.342 39.7028 111.244 39.7643 111.136 39.802C111.028 39.8398 110.914 39.8527 110.8 39.84H110.17C110.058 39.8518 109.945 39.8379 109.839 39.7993C109.734 39.7608 109.638 39.6987 109.56 39.6177C109.482 39.5367 109.423 39.439 109.389 39.332C109.354 39.2249 109.344 39.1114 109.36 39V29.72C109.36 27.07 108.93 24.72 105.68 24.72C102.09 24.72 99.2801 27.67 99.2801 31.6V39C99.2959 39.1114 99.2861 39.2249 99.2515 39.332C99.2168 39.439 99.1582 39.5367 99.0801 39.6177C99.002 39.6987 98.9065 39.7608 98.8008 39.7993C98.6951 39.8379 98.582 39.8518 98.4701 39.84H97.8401C97.7267 39.8527 97.6119 39.8398 97.5042 39.802C97.3965 39.7643 97.2986 39.7028 97.218 39.6221C97.1373 39.5415 97.0758 39.4436 97.0381 39.3359C97.0004 39.2282 96.9874 39.1134 97.0001 39V23.82ZM123.89 29.52H124.89V28.98C124.89 25.73 123.11 24.62 120.73 24.62C119.285 24.6368 117.872 25.0445 116.64 25.8C116.549 25.8609 116.447 25.9023 116.34 25.9217C116.232 25.9411 116.122 25.938 116.016 25.9126C115.91 25.8873 115.81 25.8402 115.723 25.7743C115.636 25.7085 115.563 25.6253 115.51 25.53L115.3 25.19C115.232 25.1027 115.183 25.0014 115.158 24.8932C115.132 24.785 115.131 24.6727 115.154 24.564C115.177 24.4553 115.223 24.353 115.29 24.2642C115.357 24.1754 115.442 24.1023 115.54 24.05C117.159 23.08 119.013 22.5716 120.9 22.58C124.9 22.58 127.17 24.82 127.17 29.05V39.05C127.186 39.1614 127.176 39.2749 127.141 39.382C127.107 39.489 127.048 39.5867 126.97 39.6677C126.892 39.7487 126.797 39.8108 126.691 39.8493C126.585 39.8879 126.472 39.9018 126.36 39.89H125.83C125.716 39.9047 125.601 39.8931 125.492 39.8561C125.383 39.8191 125.285 39.7577 125.204 39.6765C125.122 39.5954 125.061 39.4967 125.024 39.3881C124.987 39.2795 124.975 39.1638 124.99 39.05V37.66C124.986 37.2345 125.019 36.8095 125.09 36.39H125C124.538 37.5283 123.751 38.5052 122.738 39.1988C121.724 39.8925 120.528 40.272 119.3 40.29C116.45 40.29 113.6 38.62 113.6 35.37C113.6 29.82 120.64 29.52 123.89 29.52ZM119.7 38.29C122.95 38.29 124.86 34.94 124.86 31.99V31.19H123.92C121.27 31.19 115.92 31.29 115.92 35.07C115.94 36.69 117.19 38.29 119.7 38.29ZM130.39 23.82C130.377 23.7066 130.39 23.5918 130.428 23.4841C130.466 23.3764 130.527 23.2786 130.608 23.1979C130.689 23.1172 130.786 23.0557 130.894 23.018C131.002 22.9803 131.117 22.9673 131.23 22.98H131.83C131.941 22.9718 132.052 22.9882 132.155 23.0281C132.259 23.068 132.352 23.1303 132.429 23.2107C132.505 23.291 132.563 23.3874 132.598 23.4927C132.633 23.5981 132.644 23.7099 132.63 23.82V25.76C132.63 26.167 132.586 26.572 132.5 26.97H132.57C133.087 25.7296 133.942 24.6599 135.039 23.8835C136.135 23.107 137.429 22.6553 138.77 22.58C141.88 22.58 143.49 24.02 143.96 26.8H144C144.542 25.5921 145.409 24.5583 146.503 23.8133C147.598 23.0683 148.878 22.6414 150.2 22.58C154.29 22.58 155.79 24.96 155.79 29.11V39C155.803 39.1125 155.79 39.2263 155.753 39.3332C155.715 39.4401 155.655 39.5374 155.575 39.6179C155.496 39.6984 155.399 39.7601 155.293 39.7985C155.186 39.8369 155.073 39.8511 154.96 39.84H154.35C154.237 39.8527 154.122 39.8398 154.014 39.802C153.906 39.7643 153.809 39.7028 153.728 39.6221C153.647 39.5415 153.586 39.4436 153.548 39.3359C153.51 39.2282 153.497 39.1134 153.51 39V29.68C153.51 26.94 152.95 24.68 149.9 24.68C146.51 24.68 144.23 28.23 144.23 31.68V38.98C144.248 39.0908 144.239 39.2042 144.206 39.3114C144.173 39.4185 144.115 39.5165 144.038 39.5977C143.96 39.679 143.865 39.7413 143.76 39.7799C143.654 39.8184 143.542 39.8322 143.43 39.82H142.79C142.677 39.8327 142.562 39.8198 142.454 39.782C142.346 39.7443 142.249 39.6828 142.168 39.6021C142.087 39.5215 142.026 39.4236 141.988 39.3159C141.95 39.2082 141.937 39.0934 141.95 38.98V29.68C141.95 27.14 141.58 24.68 138.4 24.68C134.98 24.68 132.64 28.3 132.64 31.68V38.98C132.656 39.0914 132.646 39.2049 132.611 39.312C132.577 39.419 132.518 39.5167 132.44 39.5977C132.362 39.6787 132.267 39.7408 132.161 39.7793C132.055 39.8179 131.942 39.8318 131.83 39.82H131.2C131.087 39.8327 130.972 39.8198 130.864 39.782C130.756 39.7443 130.659 39.6828 130.578 39.6021C130.497 39.5215 130.436 39.4236 130.398 39.3159C130.36 39.2082 130.347 39.0934 130.36 38.98L130.39 23.82ZM166.28 22.58C170.77 22.58 173.28 25.83 173.28 30.58C173.28 30.6938 173.257 30.8064 173.213 30.911C173.168 31.0156 173.102 31.11 173.02 31.1886C172.938 31.2671 172.84 31.3281 172.734 31.3679C172.627 31.4077 172.514 31.4254 172.4 31.42H160.31C160.41 35.71 163.36 38.16 166.85 38.16C168.455 38.1527 170.012 37.6069 171.27 36.61C171.35 36.5345 171.446 36.4788 171.551 36.4474C171.657 36.416 171.768 36.4098 171.876 36.4292C171.984 36.4487 172.086 36.4933 172.173 36.5595C172.261 36.6256 172.332 36.7114 172.38 36.81L172.65 37.22C172.709 37.3073 172.749 37.4056 172.769 37.5089C172.788 37.6122 172.787 37.7184 172.765 37.8212C172.742 37.9239 172.699 38.0211 172.638 38.1068C172.577 38.1925 172.5 38.2651 172.41 38.32C170.793 39.5634 168.819 40.2541 166.78 40.29C165.61 40.3282 164.445 40.1245 163.357 39.6917C162.269 39.2589 161.282 38.6063 160.458 37.7747C159.634 36.9431 158.99 35.9504 158.567 34.8587C158.144 33.767 157.951 32.5997 158 31.43C158 25.9 161.72 22.58 166.28 22.58ZM171 29.75C170.86 26.2 168.72 24.45 166.2 24.45C164.746 24.4492 163.344 24.9927 162.271 25.9736C161.197 26.9545 160.53 28.3017 160.4 29.75H171ZM184.17 22.58C186.201 22.5545 188.178 23.229 189.77 24.49C189.864 24.5493 189.942 24.6293 190 24.7239C190.057 24.8184 190.092 24.925 190.102 25.0353C190.112 25.1456 190.096 25.2566 190.056 25.3597C190.015 25.4629 189.952 25.5554 189.87 25.63L189.64 26C189.34 26.47 188.97 26.47 188.5 26.17C187.291 25.1951 185.793 24.6498 184.24 24.62C183.354 24.6095 182.475 24.7802 181.657 25.1218C180.839 25.4635 180.1 25.9687 179.485 26.6065C178.869 27.2443 178.391 28.0012 178.079 28.8307C177.767 29.6602 177.628 30.5448 177.67 31.43C177.633 32.3145 177.777 33.1973 178.094 34.0241C178.41 34.8509 178.892 35.6044 179.51 36.2383C180.128 36.8722 180.869 37.3731 181.688 37.7105C182.506 38.0478 183.385 38.2144 184.27 38.2C186.008 38.1844 187.683 37.5538 189 36.42C189.077 36.3377 189.172 36.276 189.279 36.2405C189.385 36.2049 189.499 36.1967 189.61 36.2167C189.72 36.2366 189.824 36.2839 189.911 36.3544C189.999 36.4249 190.067 36.5162 190.11 36.62L190.34 36.96C190.403 37.0468 190.447 37.1453 190.471 37.2496C190.495 37.3539 190.498 37.4619 190.479 37.5673C190.46 37.6726 190.421 37.7732 190.362 37.863C190.304 37.9528 190.229 38.03 190.14 38.09C188.455 39.4895 186.331 40.2507 184.14 40.24C182.97 40.2832 181.804 40.0851 180.714 39.6581C179.624 39.231 178.633 38.5841 177.804 37.7577C176.975 36.9313 176.324 35.943 175.894 34.8543C175.463 33.7657 175.261 32.6001 175.3 31.43C175.264 30.2563 175.469 29.0877 175.902 27.9962C176.335 26.9048 176.988 25.9138 177.819 25.0844C178.65 24.255 179.643 23.6049 180.735 23.1741C181.827 22.7434 182.996 22.5412 184.17 22.58ZM192.65 17.12C192.633 17.0092 192.641 16.8958 192.674 16.7887C192.707 16.6815 192.765 16.5835 192.842 16.5023C192.92 16.421 193.015 16.3587 193.12 16.3201C193.226 16.2816 193.339 16.2679 193.45 16.28H194.09C194.203 16.2673 194.318 16.2803 194.426 16.318C194.534 16.3557 194.632 16.4172 194.712 16.4979C194.793 16.5786 194.854 16.6764 194.892 16.7841C194.93 16.8918 194.943 17.0066 194.93 17.12V25.53C194.93 25.99 194.887 26.449 194.8 26.9H194.86C195.454 25.6116 196.404 24.5202 197.599 23.7546C198.793 22.9891 200.181 22.5815 201.6 22.58C205.79 22.58 207.26 24.96 207.26 29.11V39C207.26 39.54 207 39.84 206.46 39.84H205.82C205.707 39.8527 205.592 39.8398 205.484 39.802C205.376 39.7643 205.279 39.7028 205.198 39.6221C205.117 39.5415 205.056 39.4436 205.018 39.3359C204.98 39.2282 204.967 39.1134 204.98 39V29.72C204.98 27.07 204.58 24.72 201.3 24.72C197.75 24.72 194.93 27.64 194.93 31.72V39.02C194.943 39.1334 194.93 39.2482 194.892 39.3559C194.854 39.4636 194.793 39.5615 194.712 39.6421C194.632 39.7228 194.534 39.7843 194.426 39.822C194.318 39.8598 194.203 39.8727 194.09 39.86H193.45C193.339 39.8722 193.226 39.8584 193.12 39.8199C193.015 39.7813 192.92 39.719 192.842 39.6377C192.765 39.5565 192.707 39.4585 192.674 39.3514C192.641 39.2442 192.633 39.1308 192.65 39.02V17.12ZM217.75 22.58C222.24 22.58 224.75 25.83 224.75 30.58C224.75 30.6929 224.727 30.8046 224.683 30.9085C224.639 31.0125 224.575 31.1064 224.494 31.1848C224.412 31.2632 224.316 31.3245 224.211 31.3649C224.105 31.4053 223.993 31.424 223.88 31.42H211.79C211.89 35.71 214.84 38.16 218.32 38.16C219.928 38.1526 221.488 37.607 222.75 36.61C222.829 36.5345 222.924 36.4787 223.029 36.4472C223.133 36.4158 223.244 36.4096 223.351 36.4291C223.459 36.4486 223.56 36.4933 223.646 36.5595C223.733 36.6257 223.803 36.7116 223.85 36.81L224.12 37.22C224.179 37.3067 224.22 37.4044 224.241 37.5073C224.261 37.6103 224.261 37.7162 224.239 37.8189C224.218 37.9216 224.176 38.0189 224.116 38.105C224.056 38.1911 223.979 38.2642 223.89 38.32C222.271 39.5597 220.299 40.2499 218.26 40.29C217.091 40.3319 215.927 40.1327 214.838 39.7049C213.75 39.2771 212.761 38.6299 211.934 37.8034C211.106 36.977 210.458 35.9891 210.029 34.9012C209.6 33.8133 209.4 32.6487 209.44 31.48C209.44 25.9 213.19 22.58 217.75 22.58ZM222.48 29.75C222.35 26.2 220.2 24.45 217.68 24.45C216.226 24.4471 214.825 24.9902 213.752 25.9717C212.68 26.9533 212.015 28.3017 211.89 29.75H222.48ZM236.12 29.52H237.12V28.98C237.12 25.73 235.34 24.62 232.96 24.62C231.518 24.631 230.106 25.0392 228.88 25.8C228.789 25.8611 228.686 25.9027 228.577 25.9221C228.469 25.9416 228.358 25.9386 228.251 25.9133C228.144 25.8879 228.044 25.8408 227.956 25.7749C227.868 25.7089 227.794 25.6256 227.74 25.53L227.54 25.19C227.471 25.1033 227.422 25.0026 227.396 24.8949C227.37 24.7872 227.368 24.6751 227.39 24.5665C227.412 24.4579 227.457 24.3554 227.523 24.2662C227.589 24.1769 227.673 24.1032 227.77 24.05C229.389 23.08 231.243 22.5716 233.13 22.58C237.13 22.58 239.4 24.82 239.4 29.05V39.05C239.416 39.1614 239.406 39.2749 239.371 39.382C239.337 39.489 239.278 39.5867 239.2 39.6677C239.122 39.7487 239.027 39.8108 238.921 39.8493C238.815 39.8879 238.702 39.9018 238.59 39.89H238C237.886 39.9047 237.771 39.8931 237.662 39.8561C237.553 39.8191 237.455 39.7577 237.374 39.6765C237.292 39.5954 237.231 39.4967 237.194 39.3881C237.157 39.2795 237.145 39.1638 237.16 39.05V37.66C237.156 37.2345 237.189 36.8095 237.26 36.39H237.19C236.731 37.5221 235.95 38.4948 234.944 39.1879C233.938 39.8811 232.751 40.2642 231.53 40.29C228.68 40.29 225.83 38.62 225.83 35.37C225.83 29.82 232.87 29.52 236.12 29.52ZM231.93 38.29C235.18 38.29 237.09 34.94 237.09 31.99V31.19H236.15C233.5 31.19 228.15 31.29 228.15 35.07C228.17 36.69 229.41 38.29 231.93 38.29ZM242.65 23.82C242.634 23.7086 242.644 23.5951 242.679 23.488C242.713 23.381 242.772 23.2833 242.85 23.2023C242.928 23.1213 243.024 23.0592 243.129 23.0207C243.235 22.9822 243.348 22.9682 243.46 22.98H244C244.106 22.9663 244.214 22.9764 244.316 23.0097C244.418 23.043 244.511 23.0985 244.588 23.1722C244.666 23.246 244.726 23.3361 244.764 23.4361C244.803 23.536 244.818 23.6433 244.81 23.75V24.96C244.813 25.3423 244.78 25.7241 244.71 26.1H244.77C245.305 25.0036 246.148 24.0868 247.196 23.4617C248.244 22.8365 249.451 22.5302 250.67 22.58C255.2 22.58 258.01 26.2 258.01 31.43C258.01 36.66 254.82 40.29 250.43 40.29C249.274 40.3035 248.137 39.9895 247.151 39.3843C246.166 38.7791 245.371 37.9075 244.86 36.87H244.8C244.89 37.358 244.934 37.854 244.93 38.35V45.75C244.943 45.8634 244.93 45.9782 244.892 46.0859C244.854 46.1936 244.793 46.2915 244.712 46.3721C244.632 46.4528 244.534 46.5143 244.426 46.552C244.318 46.5898 244.204 46.6027 244.09 46.59H243.46C243.348 46.6018 243.235 46.5879 243.129 46.5493C243.024 46.5108 242.928 46.4487 242.85 46.3677C242.772 46.2867 242.713 46.189 242.679 46.082C242.644 45.9749 242.634 45.8614 242.65 45.75V23.82ZM250.19 38.2C253.19 38.2 255.66 35.72 255.66 31.43C255.66 27.3 253.44 24.66 250.33 24.66C247.51 24.66 244.86 26.66 244.86 31.46C244.86 34.84 246.74 38.2 250.19 38.2Z" fill="white"/>
</g>
<defs>
<linearGradient id="paint0_linear_50_441" x1="1077.73" y1="4345" x2="2864.62" y2="513.298" gradientUnits="userSpaceOnUse">
<stop stop-color="#D4202C"/>
<stop offset="0.1" stop-color="#DC3D29" stop-opacity="0.79"/>
<stop offset="0.2" stop-color="#E45926" stop-opacity="0.58"/>
<stop offset="0.32" stop-color="#EA7123" stop-opacity="0.4"/>
<stop offset="0.43" stop-color="#F08521" stop-opacity="0.25"/>
<stop offset="0.55" stop-color="#F4941F" stop-opacity="0.14"/>
<stop offset="0.68" stop-color="#F79F1E" stop-opacity="0.06"/>
<stop offset="0.82" stop-color="#F8A51D" stop-opacity="0.02"/>
<stop offset="1" stop-color="#F9A71D" stop-opacity="0"/>
</linearGradient>
<linearGradient id="paint1_linear_50_441" x1="1867.81" y1="231.817" x2="80.7269" y2="4063.95" gradientUnits="userSpaceOnUse">
<stop stop-color="#D4202C"/>
<stop offset="0.1" stop-color="#DC3D29" stop-opacity="0.79"/>
<stop offset="0.2" stop-color="#E45926" stop-opacity="0.58"/>
<stop offset="0.32" stop-color="#EA7123" stop-opacity="0.4"/>
<stop offset="0.43" stop-color="#F08521" stop-opacity="0.25"/>
<stop offset="0.55" stop-color="#F4941F" stop-opacity="0.14"/>
<stop offset="0.68" stop-color="#F79F1E" stop-opacity="0.06"/>
<stop offset="0.82" stop-color="#F8A51D" stop-opacity="0.02"/>
<stop offset="1" stop-color="#F9A71D" stop-opacity="0"/>
</linearGradient>
<clipPath id="clip0_50_441">
<rect width="258" height="47" fill="white"/>
</clipPath>
</defs>
</svg>
