<svg width="1511" height="241" viewBox="0 0 1511 241" fill="none" xmlns="http://www.w3.org/2000/svg">
<path d="M873.5 203.7C873.5 219.9 861.6 232.8 844.6 232.8C828.2 232.8 816 219.9 816 203.7C816 187.5 828.2 173.7 844.6 173.7C861.6 173.7 873.5 187.4 873.5 203.7Z" fill="#6EDA78"/>
<path d="M9.69995 229V93.6L48.4 84.2L42.5 127.8H46.7C49.1 117.7 52.9 109.2 58 102.1C63.2 95.1 69.8 89.7 77.8 86.1C86 82.3 95.4 80.4 106.2 80.4C120.2 80.4 132.3 83.6 142.5 90.1C152.6 96.4 160.4 105.6 165.8 117.8C171.4 129.8 174.1 144.1 174.1 160.9V229H135.6V171.1C135.6 159.9 133.9 150.4 130.5 142.6C127.1 134.6 122.1 128.6 115.6 124.6C109.1 120.4 101.2 118.3 92.1 118.3C78.4 118.3 67.7 122.9 60 132C52.3 141.1 48.5 154.1 48.5 171.1V229H9.69995Z" fill="white"/>
<path fill-rule="evenodd" clip-rule="evenodd" d="M252.4 232.7C232.8 232.7 216 228.8 206.7 221C197.4 213 192.7 202.3 192.7 188.8C192.7 175.7 197.4 165.2 206.7 157.4C231.8 135.8 310.3 144.1 315.3 145.8C315.3 142.5 315.1 136.9 311.8 131.4C303.9 117.6 287.5 111.7 272.8 111.7C260.5 111.7 247.5 117.8 239.9 127.1C236.9 130.8 234.4 136.2 234.4 136.2H197.6C198.2 129.2 202.2 117.8 208.3 109.2C214.3 100.5 223.7 93.1 235.3 88C247.1 82.7 256 80.4 273.3 80.4C291.3 80.4 305.1 83.4 317.2 89.5C329.3 95.6 338.3 104.1 344.1 115.2C350 126.2 352.9 139.2 352.9 154V177.3V229.3H315.2L321.2 198.4H317.1C315.2 206.9 311.7 213.3 307.5 218C303.2 222.7 297.7 225.6 288 228.5C278.5 231.3 266.6 232.7 252.4 232.7ZM229.2 186.3C227.2 153.4 306.2 163 315.3 164.1C315.3 168.9 315 173.6 313.9 178.1C308.1 201.4 275.8 206.5 255.9 204.7C241.4 203.4 229.9 198.1 229.2 186.3Z" fill="white"/>
<path d="M375.3 94.7V229H414V157.1C414 144.9 416.8 135.4 422.3 128.6C427.9 121.8 435.4 118.3 444.8 118.3C451.2 118.3 456.6 119.8 461.2 122.9C465.9 125.9 469.5 130.4 472 136.3C474.6 142 475.9 148.9 475.9 157.1V229H514.4V157.1C514.4 144.9 517.2 135.4 522.7 128.6C528.4 121.8 536 118.3 545.5 118.3C551.9 118.3 557.3 119.8 561.9 122.9C566.6 125.9 570.2 130.4 572.7 136.3C575.1 142 576.4 148.9 576.4 157.1V229H615.1V146.9C615.1 132.8 612.9 120.9 608.5 111C604.3 100.9 598.2 93.3 590.4 88.2C582.6 83.1 573.3 80.5 562.5 80.5C549.4 80.5 538.7 84 530.4 91.1C522.2 97.9 516.4 108.2 513 121.9H509.6C508.5 114.1 505.8 107.2 501.8 101.1C497.7 94.8 492.2 89.9 485.4 86.3C478.7 82.5 470.7 80.6 461.4 80.6C448.7 80.6 438.3 84 430.3 90.9C422.3 97.6 416.6 107.4 413.2 120.6H409L414.1 84.4L375.3 94.7Z" fill="white"/>
<path fill-rule="evenodd" clip-rule="evenodd" d="M718.3 232.7C700.3 232.7 684.9 229.4 672 222.7C659.3 215.9 649.6 206.7 643.1 195.3C636.6 183.7 633.3 170.8 633.3 156.5C633.3 142.2 636.6 129.4 643.1 118C649.6 106.4 659.3 97.3 672.2 90.6C685.1 83.8 700.6 80.3 718.7 80.3C736.8 80.3 752.3 83.7 765 90.6C777.9 97.3 787.6 106.4 794.2 118C800.7 129.6 804 142.6 804 157.1C804 161.1 803.3 167.3 803.3 167.3H669.9C670.8 171.6 672.3 175.6 674.4 179.4C678.2 185.9 683.7 191 691.1 194.8C698.6 198.4 707.9 200.2 719 200.2C731.6 200.2 741.2 198.5 747.9 195.1C753.1 192.4 757.4 189.2 760.9 185.6H800C797.4 192.3 793.3 199 787.8 205.6C781.4 213.2 772.4 219.7 760.6 225C749.1 230.2 735 232.7 718.3 232.7ZM674.5 134.4C673.1 136.8 671.6 140.5 671.1 143.2H718.7H766.3C765.7 140.5 764.3 136.8 762.9 134.4C759.1 127.7 753.6 122.6 746.2 119C738.9 115.2 729.7 113.3 718.8 113.3C707.7 113.3 698.5 115.2 691.1 119C683.8 122.6 678.2 127.7 674.5 134.4Z" fill="white"/>
<path d="M896.2 195.4C902.7 206.8 912.3 215.9 924.9 222.8C937.6 229.5 953 232.8 971 232.8C987 232.8 1001.1 230 1013.4 224.5C1025.6 219 1035.4 211.3 1042.6 201.4C1049.8 191.5 1054 180.3 1055.3 167.8H1016.6C1015.1 176.2 1010.5 183.2 1002.6 188.9C994.8 194.6 984.2 197.5 971 197.5C961.2 197.5 952.9 195.7 946 192.1C939.1 188.3 933.9 183.4 930.3 177.3C926.7 171.2 924.9 164.4 924.9 156.8C924.9 149.4 926.7 142.6 930.3 136.6C933.9 130.3 939.1 125.4 946 121.8C952.9 118.2 961.2 116.4 971 116.4C979.8 116.4 987.5 117.8 994 120.7C1000.5 123.4 1005.7 126.9 1009.4 131.3C1013.2 135.7 1015.5 140.6 1016.5 146.1H1055.2C1053.9 133.4 1049.6 122.1 1042.5 112.5C1035.3 102.6 1025.6 94.9 1013.3 89.4C1001.1 83.7 986.9 80.8 970.9 80.8C952.9 80.8 937.6 84.2 924.8 91.1C912.2 97.8 902.7 106.9 896.1 118.5C889.6 130.1 886.3 142.9 886.3 157C886.4 170.9 889.7 183.8 896.2 195.4Z" fill="white"/>
<path fill-rule="evenodd" clip-rule="evenodd" d="M1159.2 232.7C1140.6 232.7 1124.7 229.4 1111.7 222.7C1098.6 215.9 1088.8 206.7 1082.1 195.3C1075.6 183.7 1072.3 170.8 1072.3 156.5C1072.3 142.2 1075.6 129.4 1082.1 118C1088.8 106.4 1098.7 97.3 1111.7 90.6C1124.8 83.8 1140.6 80.3 1159.2 80.3C1177.7 80.3 1193.4 83.7 1206.5 90.6C1219.6 97.3 1229.4 106.4 1235.9 118C1242.6 129.4 1245.9 142.2 1245.9 156.5C1245.9 170.8 1242.6 183.7 1235.9 195.3C1229.4 206.7 1219.6 215.8 1206.5 222.7C1193.5 229.4 1177.7 232.7 1159.2 232.7ZM1159.2 197.4C1169.5 197.4 1178.2 195.6 1185.4 192C1192.7 188.4 1198.2 183.5 1201.8 177.5C1205.6 171.4 1207.4 164.5 1207.4 156.7C1207.4 149.3 1205.5 142.5 1201.8 136.5C1198.2 130.2 1192.7 125.3 1185.4 121.7C1178.2 118.1 1169.5 116.3 1159.2 116.3C1148.7 116.3 1139.8 118.1 1132.5 121.7C1125.3 125.3 1119.8 130.3 1116.1 136.5C1112.5 142.6 1110.7 149.3 1110.7 156.7C1110.7 164.5 1112.5 171.4 1116.1 177.5C1119.9 183.6 1125.3 188.4 1132.5 192C1139.9 195.6 1148.8 197.4 1159.2 197.4Z" fill="white"/>
<path d="M1265.3 93.6V229H1304V157.1C1304 144.9 1306.8 135.4 1312.3 128.6C1317.9 121.8 1325.4 118.3 1334.8 118.3C1341.2 118.3 1346.6 119.8 1351.2 122.9C1355.9 125.9 1359.5 130.4 1362 136.3C1364.6 142 1365.9 148.9 1365.9 157.1V229H1404.4V157.1C1404.4 144.9 1407.2 135.4 1412.7 128.6C1418.4 121.8 1426 118.3 1435.5 118.3C1441.9 118.3 1447.3 119.8 1451.9 122.9C1456.6 125.9 1460.2 130.4 1462.7 136.3C1465.1 142 1466.4 148.9 1466.4 157.1V229H1505.1V146.9C1505.1 132.8 1502.9 120.9 1498.5 111C1494.3 100.9 1488.2 93.3 1480.4 88.2C1472.6 83.1 1463.3 80.5 1452.5 80.5C1439.4 80.5 1428.7 84 1420.4 91.1C1412.2 97.9 1406.4 108.2 1403 121.9H1399.6C1398.5 114.1 1395.8 107.2 1391.8 101.1C1387.7 94.8 1382.2 89.9 1375.4 86.3C1368.7 82.5 1360.7 80.6 1351.4 80.6C1338.7 80.6 1328.3 84 1320.3 90.9C1312.3 97.6 1306.6 107.4 1303.2 120.6H1299L1304.1 84.4L1265.3 93.6Z" fill="white"/>
</svg>
