<svg version="1.1" id="Layer_1" xmlns="http://www.w3.org/2000/svg" xmlns:xlink="http://www.w3.org/1999/xlink" x="0px" y="0px" viewBox="0 0 298 47.2" style="enable-background:new 0 0 298 47.2;" xml:space="preserve">
 <style type="text/css">
  .st0{fill-rule:evenodd;clip-rule:evenodd;fill:#FFFFFF;}
	.st1{fill:#FFFFFF;}
 </style>
 <path class="st0" d="M73.1,2.7c7.9,14.2,6.4,31.8-3.7,44.5H48l6.6-11.7h-8.7l10.3-18.1h8.8L73.1,2.7L73.1,2.7z M30.8,47.2H8.9
	C-1.4,34.5-2.9,16.8,5.1,2.6l14.2,24.6L35,0h23L30.8,47.2L30.8,47.2L30.8,47.2L30.8,47.2z">
 </path>
 <path class="st1" d="M91.2,25.3c0-12.6,6.3-18.6,16.6-18.6s16.6,6,16.6,18.6s-6.3,18.6-16.6,18.6S91.2,37.8,91.2,25.3z M94.9,25.3
	c0,10.3,4.7,15.3,12.9,15.3s12.8-4.9,12.8-15.3s-4.7-15.3-12.8-15.3S94.9,14.9,94.9,25.3z">
 </path>
 <path class="st1" d="M151.4,8.1c0.3-0.7,0.9-1.2,1.7-1.2c1,0,1.8,0.8,1.8,1.8c0,0,0,0,0,0c0,0.3-0.1,0.5-0.2,0.8l-12.4,32.7
	c-0.3,0.9-1.3,1.5-2.2,1.2c-0.5-0.2-1-0.6-1.2-1.2L126.5,9.6c-0.1-0.3-0.2-0.5-0.2-0.8c0-1,0.8-1.8,1.8-1.8c0,0,0,0,0,0
	c0.8,0,1.4,0.5,1.7,1.2l10.8,28.6L151.4,8.1z">
 </path>
 <path class="st1" d="M162.4,26.4v15.3c0.1,1-0.7,1.9-1.7,1.9s-1.9-0.7-1.9-1.7c0-0.1,0-0.2,0-0.3v-33c-0.1-1,0.7-1.9,1.7-1.9
	s1.9,0.7,1.9,1.7c0,0.1,0,0.2,0,0.3v14.4h18.5V8.8c-0.1-1,0.7-1.9,1.7-1.9s1.9,0.7,1.9,1.7c0,0.1,0,0.2,0,0.3v33
	c0.1,1-0.7,1.9-1.7,1.9S181,43,180.9,42c0-0.1,0-0.2,0-0.3V26.4H162.4z">
 </path>
 <path class="st1" d="M201.6,18.3c3.1-0.1,6.2,1.2,8.2,3.7c0.2,0.3,0.4,0.6,0.4,1c0,0.8-0.6,1.5-1.5,1.5c0,0,0,0-0.1,0
	c-0.5,0-1-0.2-1.3-0.6c-1.4-1.7-3.5-2.6-5.7-2.5c-4.9,0-7.5,3.1-7.5,9.7s2.6,9.7,7.5,9.7c2.3,0,4.4-0.8,6.1-2.3
	c0.3-0.2,0.6-0.4,1-0.4c0.9,0,1.5,0.7,1.5,1.5c0,0.5-0.3,1-0.7,1.3c-2.2,1.9-5.1,2.9-8,2.9c-6.9,0-10.9-4.1-10.9-12.8
	S194.7,18.3,201.6,18.3z">
 </path>
 <path class="st1" d="M218.5,7v30.4c0,2.1,0.7,3,2.1,3c0.9-0.1,1.7,0.6,1.7,1.5c0.1,0.9-0.6,1.7-1.5,1.7c-0.1,0-0.2,0-0.3,0
	c-3.6,0-5.5-2.1-5.5-6.2V7c0-0.9,0.8-1.7,1.7-1.7C217.7,5.3,218.5,6.1,218.5,7z">
 </path>
 <path class="st1" d="M247.4,31c0,8.7-4.2,12.8-11.1,12.8s-11.1-4.1-11.1-12.8s4.3-12.7,11.1-12.7S247.4,22.3,247.4,31z M244,31
	c0-6.7-2.8-9.7-7.7-9.7s-7.7,3-7.7,9.7s2.8,9.7,7.7,9.7S244,37.8,244,31L244,31z">
 </path>
 <path class="st1" d="M255.6,20.3v13.9c0,3.4,1.1,6.4,6.5,6.4s6.5-3,6.5-6.4V20.3c0-0.9,0.8-1.7,1.7-1.7c0,0,0,0,0,0
	c0.9,0,1.7,0.8,1.7,1.7c0,0,0,0,0,0v13.9c0,5-1.6,9.7-9.9,9.7s-9.9-4.6-9.9-9.7V20.3c0-0.9,0.7-1.7,1.6-1.7c0,0,0,0,0.1,0
	C254.9,18.6,255.6,19.4,255.6,20.3z">
 </path>
 <path class="st1" d="M294.6,21.7V7c0-0.9,0.8-1.7,1.7-1.7c0.9,0,1.7,0.8,1.7,1.7v26.4c0,7-4.4,10.5-10.4,10.5
	c-6.9,0-10.9-4.1-10.9-12.8s3.8-12.7,10.7-12.7C290.2,18.3,292.9,19.5,294.6,21.7z M294.6,26c0,0-2-4.7-7-4.7s-7.5,3.1-7.5,9.7
	s2.6,9.7,7.5,9.7c4.1,0,7-2.3,7-7.4V26z">
 </path>
</svg>