<svg xmlns="http://www.w3.org/2000/svg" data-name="Layer 17" version="1.0" viewBox="74.5 6.5 871.6 577.4" style="fill:#000" width="445.475" height="294.769"><path d="M915.94 576.87c-16.82 0-34.43-7.52-46.28-19.13-20.17-19.78-28.73-47.88-35.76-74.96l-1.19-4.6c-6.58-25.48-13.38-51.82-29.59-72.49-22.36-28.5-63.19-44.25-106.59-41.09-40.79 2.97-79.61 20.73-112.21 37.71-7.55 3.94-15.2 8.04-22.59 12.02-27.19 14.62-55.3 29.73-85.07 39.51-20.16 6.62-40.24 9.48-58.06 8.27-21.28-1.45-38.58-8.54-51.44-21.06-21.44-20.89-28.72-55.38-21.62-102.5 2.72-18.08 6.67-36.25 10.49-53.83 5.13-23.64 10.44-48.08 12.82-72.54 3.41-35.11 1.32-84.77-27.95-121.89-25.66-32.55-70.87-51.64-121.06-51.09-42.8.47-83.63 13.16-131.77 32.07l-.37-.93c48.24-18.95 89.17-31.67 132.13-32.14 50.43-.57 96.01 18.68 121.86 51.47 29.48 37.39 31.58 87.31 28.16 122.61-2.38 24.51-7.69 48.98-12.83 72.65-3.81 17.56-7.76 35.72-10.47 53.76-7.04 46.79.13 80.99 21.33 101.64 23.17 22.57 63.72 27.26 108.48 12.56 29.69-9.75 57.76-24.85 84.91-39.44 7.39-3.98 15.04-8.09 22.6-12.02 32.69-17.03 71.63-34.84 112.6-37.83 43.71-3.18 84.88 12.71 107.45 41.47 16.34 20.83 23.17 47.28 29.77 72.86l1.19 4.6c7 26.94 15.5 54.89 35.49 74.49 19.28 18.91 54.05 26.82 75.08 8.47l.66.75c-8.49 7.4-19.16 10.62-30.16 10.63Z" style="fill:#c23a97"/><path d="M906.62 575.14c-16.64 0-33.88-7.34-45.61-18.33-20.22-18.94-29.32-45.96-36.92-72-.5-1.7-.99-3.4-1.48-5.11-5.89-20.35-11.98-41.4-23.18-59.42-2.26-3.63-4.69-7.09-7.23-10.26-22.52-28.15-61.52-43.92-104.3-42.17-37.1 1.51-71.28 15.08-96.92 26.74-3.63 1.65-7.35 3.38-11.37 5.3-7.42 3.54-14.91 7.25-22.16 10.83-25.77 12.75-52.42 25.92-80.59 34.09-20.72 6-72.42 16.44-104.73-16.18a71.36 71.36 0 0 1-6.55-7.63c-15.54-20.96-20.85-52.35-15.8-93.3 2.13-17.22 5.31-34.5 8.39-51.2 4.33-23.48 8.8-47.75 10.32-71.92 1.99-31.38-1.65-59.28-10.8-82.94-5.02-12.98-11.75-24.63-20.01-34.62-25.82-31.25-70.67-49.63-120.01-49.11-42.21.43-82.59 12.57-130.25 30.67l-.36-.93c47.76-18.14 88.24-30.31 130.6-30.74 49.59-.53 94.78 17.99 120.79 49.47 8.32 10.08 15.11 21.82 20.17 34.9 9.21 23.79 12.86 51.84 10.87 83.36-1.53 24.23-6.01 48.53-10.34 72.04-3.08 16.69-6.26 33.95-8.38 51.14-5.02 40.68.24 71.83 15.61 92.58a69.27 69.27 0 0 0 6.45 7.52c31.93 32.24 83.19 21.88 103.74 15.92 28.09-8.14 54.7-21.3 80.43-34.03 7.25-3.58 14.74-7.29 22.17-10.84 4.03-1.92 7.75-3.66 11.39-5.31 25.72-11.69 60.02-25.31 97.29-26.83 19.97-.81 39.96 2.34 57.81 9.13 19.35 7.35 35.71 18.91 47.31 33.41a106.5 106.5 0 0 1 7.29 10.35c11.26 18.14 17.38 39.25 23.29 59.67.49 1.71.99 3.41 1.48 5.11 7.56 25.92 16.61 52.79 36.64 71.55 19.06 17.87 52.92 25.96 74.38 7.89l.64.77c-8.64 7.27-19.24 10.4-30.09 10.4Z" style="fill:#c23a97"/><path d="M897.16 573.26c-2.54 0-5.13-.17-7.75-.5-13.5-1.73-27.01-7.88-37.07-16.86-20.27-18.1-29.92-44.04-38.07-69.05-.61-1.88-1.22-3.77-1.83-5.67-6.27-19.4-12.75-39.46-23.91-56.8a110.63 110.63 0 0 0-7.25-10.01c-22.15-27.12-59.83-43.25-100.96-43.25h-1.06c-35.98.24-68.86 11.79-93.48 21.82-3.46 1.41-7.02 2.9-10.89 4.56-7.24 3.11-14.53 6.38-21.58 9.53-24.39 10.92-49.62 22.2-76.26 28.78-19.78 4.88-69.12 12.74-99.96-19.57a73.605 73.605 0 0 1-6.32-7.6c-15.14-20.98-20.62-50.99-16.75-91.75 1.56-16.28 4-32.58 6.36-48.33 3.5-23.4 7.12-47.59 7.77-71.55.83-30.39-3.61-57.3-13.2-79.98-5.28-12.48-12.16-23.66-20.47-33.25-25.99-29.96-70.47-47.63-118.96-47.13-41.61.39-81.55 11.98-128.73 29.28l-.34-.94c47.27-17.33 87.31-28.95 129.06-29.34 22.94-.19 45.69 3.65 65.77 11.16 22.08 8.27 40.23 20.48 53.96 36.31 8.38 9.67 15.32 20.94 20.64 33.51 9.65 22.81 14.12 49.86 13.28 80.4-.65 24.02-4.28 48.25-7.79 71.67-2.36 15.74-4.79 32.02-6.35 48.28-3.85 40.51 1.57 70.3 16.57 91.07a70.49 70.49 0 0 0 6.24 7.5c30.48 31.93 79.38 24.12 99 19.29 26.55-6.56 51.73-17.83 76.09-28.73 7.05-3.16 14.35-6.42 21.6-9.54 3.87-1.66 7.44-3.16 10.9-4.57 24.71-10.07 57.7-21.65 93.85-21.89 41.85-.27 80.27 16.02 102.8 43.61 2.56 3.13 5.02 6.53 7.32 10.1 11.23 17.45 17.73 37.58 24.01 57.04.61 1.89 1.22 3.78 1.83 5.66 8.1 24.88 17.7 50.68 37.79 68.62 18.93 16.92 52.48 24.52 73.67 7.32l.63.78c-8.09 6.57-18.59 10.02-30.15 10.02Z" style="fill:#c23a97"/><path d="M888 571.42c-16.05 0-32.62-6.52-44.31-16.46-20.34-17.28-30.53-42.13-39.23-66.1-.75-2.08-1.51-4.17-2.26-6.27-6.62-18.43-13.46-37.49-24.56-54.14-2.29-3.45-4.74-6.73-7.27-9.77-22.14-26.57-59.43-43.14-99.74-44.33-34.82-1.03-66.41 8.49-90.04 16.89-3.31 1.18-6.71 2.43-10.4 3.82-7.01 2.65-14.06 5.44-20.87 8.13-23.06 9.12-46.91 18.55-72.06 23.57-17.62 3.5-34.93 3.86-50.06 1.03-18.51-3.46-33.69-11.53-45.12-23.98a75.159 75.159 0 0 1-6.1-7.58c-14.53-20.69-20.32-50.19-17.7-90.2 1.01-15.24 2.74-30.45 4.41-45.17 2.78-24.5 5.41-47.64 5.13-71.48-.32-29.4-5.57-55.32-15.61-77.03-5.53-11.97-12.57-22.69-20.93-31.87-26.22-28.75-68.49-45.16-116.17-45.16h-1.74c-45.59.38-89.57 14.59-127.21 27.88l-.33-.94c37.72-13.31 81.78-27.55 127.53-27.94 48.7-.41 91.93 16.17 118.66 45.48 8.43 9.25 15.53 20.06 21.1 32.13 10.09 21.84 15.37 47.89 15.7 77.43.27 23.9-2.48 48.15-5.14 71.6-1.67 14.7-3.39 29.9-4.41 45.12-2.6 39.77 3.13 69.07 17.52 89.56 1.85 2.63 3.88 5.15 6.02 7.48 29.02 31.6 75.58 26.37 94.25 22.65 25.06-5 48.86-14.42 71.88-23.52 6.82-2.7 13.87-5.48 20.89-8.14 3.69-1.39 7.1-2.65 10.42-3.82 23.71-8.44 55.42-17.98 90.41-16.95 40.59 1.2 78.15 17.9 100.48 44.69a117.2 117.2 0 0 1 7.34 9.85c11.17 16.75 18.03 35.87 24.67 54.36.75 2.1 1.5 4.19 2.26 6.26 8.65 23.85 18.78 48.56 38.93 65.68 19.21 16.33 51.76 23.31 72.97 6.74l.62.79c-8.67 6.77-19.18 9.69-29.92 9.69Z" style="fill:#c23a97"/><path d="M878.49 569.56c-2.32 0-4.69-.13-7.08-.4-13.04-1.47-26.3-6.98-36.39-15.11-20.43-16.46-31.15-40.22-40.38-63.15-.93-2.3-1.85-4.62-2.78-6.95-6.94-17.44-14.12-35.48-25.13-51.4a119.83 119.83 0 0 0-7.29-9.52c-21.94-25.77-58.37-42.74-97.46-45.41-33.63-2.3-63.95 5.19-86.61 11.97a535.3 535.3 0 0 0-9.92 3.07c-6.73 2.16-13.47 4.43-19.99 6.64-22.79 7.7-44.31 14.98-68.03 18.46-22.22 3.24-63.52 4.12-90.41-26.34a76.56 76.56 0 0 1-5.88-7.55c-14.1-20.65-20.02-48.82-18.65-88.65.5-14.07 1.56-28.08 2.59-41.63 1.86-24.65 3.62-47.94 2.37-71.77-1.48-28.4-7.54-53.33-18.01-74.07-5.78-11.46-12.98-21.72-21.4-30.5-26.71-27.79-69.31-43.53-116.86-43.17-44.92.33-88.43 13.84-125.68 26.48l-.32-.95c37.33-12.66 80.92-26.2 126-26.53 47.87-.35 90.7 15.49 117.59 43.48 8.49 8.84 15.74 19.19 21.57 30.74 10.53 20.87 16.63 45.93 18.11 74.47 1.26 23.9-.51 47.21-2.37 71.9-1.02 13.54-2.08 27.55-2.59 41.59-1.37 39.61 4.5 67.59 18.47 88.05 1.79 2.62 3.74 5.12 5.8 7.46 26.58 30.11 67.49 29.23 89.52 26.01 23.63-3.47 45.12-10.73 67.86-18.41 6.52-2.21 13.27-4.48 20-6.64 3.49-1.12 6.74-2.12 9.94-3.08 22.74-6.8 53.17-14.31 86.97-12.01 39.35 2.68 76.04 19.79 98.15 45.76 2.54 2.98 5.01 6.21 7.36 9.6 11.07 16.01 18.27 34.1 25.23 51.6.93 2.33 1.85 4.64 2.78 6.95 9.18 22.8 19.83 46.43 40.08 62.74 18.81 15.17 50.53 22.48 72.27 6.16l.6.8c-8.14 6.11-18.61 9.34-30.03 9.34Z" style="fill:#c23a97"/><path d="M869.41 567.72c-15.7 0-31.7-5.94-43.04-14.59-20.54-15.65-32.21-39.28-41.53-60.2-1.13-2.54-2.26-5.11-3.4-7.69-7.23-16.44-14.7-33.43-25.59-48.6-2.35-3.28-4.81-6.4-7.32-9.28-21.72-24.96-57.3-42.34-95.18-46.49-32.38-3.55-61.46 1.9-83.18 7.05-3.02.72-6.11 1.48-9.43 2.33-6.36 1.64-12.72 3.38-18.86 5.06-21.53 5.9-41.87 11.47-64.25 13.42-21.05 1.81-60.16.35-85.63-29.73-2-2.35-3.9-4.89-5.66-7.53-17.67-26.67-19.65-62.48-19.59-87.1.05-12.73.51-25.4.95-37.65.9-24.97 1.75-48.56-.57-72.51-2.63-27.4-9.5-51.33-20.41-71.12-6.03-10.96-13.39-20.75-21.86-29.12-26.87-26.48-69.12-41.52-115.82-41.19-44.26.29-87.29 13.1-124.16 25.08l-.31-.95c36.94-12.01 80.06-24.85 124.46-25.13 47.02-.28 89.47 14.81 116.53 41.48 8.54 8.43 15.95 18.31 22.03 29.35 10.97 19.91 17.88 43.97 20.53 71.5 2.33 24.02 1.48 47.64.58 72.65-.44 12.24-.9 24.9-.95 37.62-.05 24.49 1.9 60.1 19.43 86.55 1.73 2.61 3.61 5.11 5.59 7.43 25.18 29.74 63.93 31.18 84.78 29.38 22.29-1.94 42.58-7.5 64.07-13.39 6.15-1.69 12.51-3.43 18.88-5.07 3.33-.85 6.42-1.62 9.45-2.33 21.8-5.16 50.99-10.63 83.52-7.07 38.12 4.17 73.94 21.68 95.82 46.83 2.53 2.91 5.01 6.05 7.38 9.35 10.95 15.25 18.44 32.3 25.69 48.78 1.13 2.57 2.26 5.14 3.39 7.68 9.28 20.81 20.88 44.3 41.23 59.81 18.67 14.24 50.09 21.04 71.56 5.58l.58.81c-8.78 6.32-19.18 8.99-29.71 8.99Z" style="fill:#c23a97"/><path d="M859.95 565.94c-15.29 0-30.81-5.52-42.24-13.74-20.67-14.85-32.87-37.33-42.69-57.24-1.39-2.81-2.77-5.65-4.15-8.51-7.47-15.41-15.2-31.34-25.92-45.72-2.37-3.18-4.84-6.22-7.34-9.04-21.81-24.51-55.67-41.85-92.9-47.57-31.05-4.78-58.93-1.37-79.75 2.13-2.84.48-5.77 1-8.95 1.59-5.9 1.1-11.78 2.29-17.46 3.44-20.37 4.12-39.61 8.01-60.75 8.43-24.28.43-58.01-4.94-80.85-33.12a83.523 83.523 0 0 1-5.43-7.5c-16.62-25.87-19.71-59.31-20.54-85.55-.33-11.19-.39-22.32-.45-33.09-.13-25.5-.26-49.59-3.76-73.83-3.79-26.38-11.46-49.31-22.81-68.17-6.28-10.45-13.79-19.79-22.32-27.75-26.79-24.95-68.14-39.21-113.58-39.21h-1.19c-43.58.24-86.15 12.35-122.64 23.69l-.3-.96c36.55-11.36 79.21-23.49 122.93-23.73h1.19c45.7 0 87.29 14.36 114.26 39.48 8.6 8.02 16.17 17.43 22.5 27.96 11.42 18.97 19.14 42.03 22.94 68.54 3.51 24.31 3.64 48.43 3.77 73.97.06 10.76.12 21.88.45 33.06.83 26.11 3.89 59.38 20.38 85.04 1.67 2.6 3.48 5.09 5.37 7.41 22.59 27.87 55.99 33.2 80.06 32.75 21.04-.42 40.24-4.3 60.57-8.41 5.69-1.15 11.57-2.34 17.47-3.44 3.19-.59 6.12-1.11 8.97-1.59 20.89-3.51 48.88-6.93 80.07-2.13 37.46 5.76 71.54 23.21 93.5 47.89 2.52 2.84 5.01 5.9 7.4 9.1 10.78 14.46 18.52 30.44 26.02 45.88 1.38 2.85 2.76 5.69 4.15 8.5 9.76 19.8 21.9 42.16 42.38 56.87 18.99 13.67 49.43 19.78 70.86 5.01l.57.82c-8.88 6.12-19.28 8.72-29.78 8.72Z" style="fill:#c23a97"/><path d="M850.65 564c-15.05 0-30.32-5.1-41.59-12.73-20.82-14.06-33.55-35.39-43.84-54.29-1.7-3.11-3.38-6.26-5.07-9.43-7.66-14.35-15.58-29.18-26.08-42.74a144.81 144.81 0 0 0-7.36-8.79c-21.55-23.67-54.58-41.4-90.63-48.65-29.62-5.97-56.35-4.63-76.33-2.8-2.86.26-5.68.55-8.47.84-5.29.57-10.55 1.21-15.64 1.83-19.35 2.35-37.62 4.57-57.66 3.43-32.75-1.92-59.05-14.55-76.06-36.5a89.153 89.153 0 0 1-5.21-7.47c-15.74-25.29-19.75-58.18-21.49-84-.61-9.39-1.06-18.74-1.49-27.78-1.26-26.31-2.46-51.16-7.3-75.9-4.94-25.35-13.42-47.29-25.21-65.21-6.53-9.94-14.2-18.81-22.79-26.37-26.98-23.69-68.03-37.23-112.74-37.23h-.98c-42.9.19-85.01 11.61-121.12 22.29l-.28-.96c36.17-10.7 78.36-22.14 121.4-22.33 45.34-.19 87.03 13.46 114.39 37.48 8.65 7.62 16.38 16.56 22.96 26.57 11.86 18.03 20.4 40.09 25.36 65.57 4.85 24.81 6.05 49.69 7.32 76.04.43 9.04.88 18.38 1.49 27.76 1.73 25.7 5.71 58.43 21.34 83.53 1.62 2.58 3.35 5.07 5.15 7.39 21.26 27.44 52.7 34.79 75.33 36.12 19.94 1.13 38.18-1.08 57.48-3.42 5.09-.62 10.35-1.26 15.65-1.83 2.79-.3 5.62-.58 8.48-.85 20.05-1.84 46.87-3.18 76.62 2.81 36.25 7.29 69.48 25.14 91.17 48.96 2.52 2.77 5.01 5.75 7.41 8.85 10.55 13.63 18.5 28.5 26.17 42.88 1.69 3.17 3.37 6.32 5.07 9.43 10.24 18.79 22.89 40.01 43.52 53.94 18.84 12.74 48.99 18.36 70.16 4.43l.55.84c-8.84 5.81-19.21 8.29-29.68 8.29Z" style="fill:#c23a97"/><path d="M841.25 562.23c-15.01 0-29.96-4.98-40.85-11.88-21.01-13.28-34.24-33.46-45-51.33-2.07-3.45-4.17-7.02-6.2-10.47-7.78-13.26-15.82-26.96-26.04-39.65-2.41-2.99-4.89-5.87-7.39-8.55-21.26-22.8-53.46-40.93-88.35-49.74-27.84-7.03-52.48-7.85-72.91-7.72-2.7.02-5.37.05-7.99.1-4.49.09-8.89.22-13.23.35-18.53.55-36.03 1.07-55.15-1.7-31.13-4.59-55.11-18.01-71.27-39.88a93.775 93.775 0 0 1-4.99-7.45c-14.74-24.48-19.61-55.41-22.43-82.44-.74-7.26-1.41-14.5-2.05-21.5-2.53-27.48-4.92-53.44-11.33-78.93-6.08-24.31-15.37-45.26-27.61-62.26-6.78-9.43-14.61-17.84-23.25-25-27.17-22.42-67.93-35.25-111.91-35.25h-.76c-42.22.14-83.87 10.86-119.59 20.89l-.27-.96c35.79-10.05 77.51-20.78 119.86-20.93h.77c44.21 0 85.2 12.91 112.55 35.48 8.71 7.21 16.59 15.68 23.43 25.18 12.32 17.11 21.66 38.17 27.77 62.6 6.42 25.57 8.82 51.56 11.35 79.08.64 7 1.31 14.24 2.05 21.49 2.81 26.92 7.66 57.71 22.29 82.03 1.55 2.57 3.22 5.05 4.94 7.37 16 21.65 39.75 34.93 70.61 39.49 19.04 2.76 36.5 2.25 54.98 1.69 4.35-.13 8.75-.26 13.25-.35 2.63-.05 5.29-.09 8-.1 20.51-.13 45.22.69 73.16 7.75 35.07 8.85 67.45 27.09 88.84 50.03 2.51 2.7 5.01 5.59 7.43 8.6 10.27 12.74 18.33 26.48 26.13 39.77 2.03 3.45 4.12 7.02 6.19 10.46 10.69 17.78 23.85 37.84 44.67 51 18.11 11.47 47.57 17.57 69.46 3.86l.53.85c-9.06 5.67-19.38 8.02-29.68 8.02Z" style="fill:#c23a97"/><path d="M831.88 560.3c-14.74 0-29.41-4.54-40.13-10.87-19.1-11.24-32.26-27.47-46.15-48.38-2.54-3.83-5.11-7.81-7.6-11.67-7.81-12.12-15.88-24.65-25.73-36.39-2.44-2.91-4.93-5.7-7.41-8.3-28.65-29.99-66.23-44.72-86.08-50.83-25.8-7.95-48.65-10.77-69.49-12.65-2.54-.23-5.05-.44-7.51-.64-3.32-.26-6.58-.51-9.79-.75-18.06-1.34-35.12-2.62-53.68-7.22-29.46-7.39-51.2-21.54-66.47-43.26-1.65-2.34-3.26-4.84-4.77-7.42-14.42-24.8-19.63-54.75-23.38-80.89-.66-4.67-1.29-9.3-1.92-13.89-3.99-29.16-7.75-56.7-16.04-83.3-7.21-23.26-17.31-43.22-30.01-59.31-7.03-8.92-15.01-16.87-23.72-23.62-27.76-21.46-67.19-33.27-111.07-33.27h-.56c-41.54.1-82.73 10.11-118.07 19.49l-.26-.97c35.41-9.4 76.67-19.43 118.33-19.53h.56c44.1 0 83.74 11.88 111.68 33.48 8.77 6.8 16.81 14.81 23.89 23.79 12.78 16.19 22.93 36.26 30.18 59.64 8.31 26.68 12.08 54.26 16.07 83.46.63 4.59 1.26 9.22 1.92 13.89 3.74 26.04 8.92 55.88 23.25 80.52 1.5 2.56 3.08 5.03 4.72 7.35 15.13 21.52 36.68 35.54 65.9 42.86 18.48 4.58 35.5 5.85 53.51 7.19 3.22.24 6.48.48 9.8.75 2.46.2 4.97.41 7.51.64 20.9 1.88 43.81 4.71 69.7 12.69 19.94 6.14 57.7 20.93 86.5 51.09 2.5 2.62 5 5.42 7.46 8.35 9.89 11.79 17.98 24.35 25.8 36.49 2.48 3.85 5.05 7.84 7.59 11.66 13.81 20.79 26.89 36.92 45.82 48.07 17.96 10.6 47.14 16.15 68.77 3.28l.51.86c-9.04 5.38-19.37 7.59-29.66 7.59Z" style="fill:#c23a97"/><path d="M822.29 558.51c-14.24 0-28.39-4.09-39.2-10.01-20.47-11.17-34.83-28.43-47.3-45.42-3.13-4.26-6.15-8.54-9.35-13.07-7.71-10.92-15.69-22.21-25.07-32.94-2.46-2.82-4.96-5.53-7.43-8.06-28.1-28.7-64.57-44.84-83.8-51.91-24.25-8.92-45.94-13.58-66.08-17.58-2.39-.47-4.73-.93-7.03-1.39l-4.41-.85c-19.07-3.68-35.54-6.86-54.16-13.73-17.46-6.5-42.84-18.41-61.67-46.63-1.57-2.33-3.09-4.82-4.54-7.39-13.31-23.74-19.31-52.21-24.32-79.33l-.81-4.44c-5.72-31.55-11.11-61.35-21.73-89.5-8.34-22.19-19.24-41.16-32.42-56.36-7.28-8.41-15.41-15.9-24.18-22.25-27.96-20.18-67.12-31.29-110.29-31.29h-.3c-40.85.05-81.58 9.37-116.55 18.1l-.24-.97c35.03-8.74 75.83-18.08 116.79-18.13 43.52-.04 82.98 11.13 111.17 31.48 8.83 6.4 17.03 13.94 24.35 22.41 13.25 15.3 24.22 34.36 32.6 56.67 10.65 28.24 16.05 58.08 21.78 89.68l.81 4.44c4.99 27.04 10.97 55.41 24.21 79.02 1.44 2.55 2.95 5.01 4.5 7.33 18.67 27.98 43.86 39.79 61.19 46.25 18.54 6.84 34.97 10.01 54 13.69l4.41.85c2.3.45 4.64.91 7.03 1.39 20.18 4.01 41.92 8.68 66.23 17.62 19.31 7.1 55.93 23.31 84.17 52.15 2.48 2.54 5 5.26 7.47 8.1 9.41 10.77 17.4 22.08 25.13 33.02 3.19 4.52 6.21 8.79 9.34 13.05 12.4 16.9 26.67 34.06 46.97 45.14 18.4 10.07 46.58 14.81 68.07 2.7l.49.87c-9.17 5.16-19.53 7.31-29.84 7.31Z" style="fill:#c23a97"/><path d="M812.37 556.71c-12.63 0-25.89-3.06-37.93-9.13-20.77-10.44-35.56-26.58-48.45-42.47-3.87-4.77-7.6-9.6-11.55-14.71-7.47-9.66-15.19-19.64-23.95-29.24-2.48-2.73-4.99-5.36-7.46-7.81-26.05-25.92-58.72-43.13-81.53-53-21.32-9.23-40.22-15.3-56.89-20.65l-5.79-1.86c-2.23-.72-4.41-1.43-6.54-2.13-19.18-6.24-35.3-11.77-53.65-21.2-17.5-9.06-39.78-22.94-56.87-49.99-1.48-2.33-2.93-4.81-4.32-7.37-13.05-24.17-19.51-52.52-25.21-77.54l-.05-.24c-7.45-33.18-14.64-62.9-27.12-90.7-9.44-21.11-21.16-39.08-34.82-53.41-7.52-7.9-15.81-14.92-24.65-20.88-28.16-18.9-67.06-29.31-109.54-29.31-40.16 0-80.43 8.62-115.03 16.7l-.23-.97c34.65-8.09 75-16.72 115.26-16.72 42.68 0 81.78 10.47 110.1 29.48 8.9 6 17.25 13.07 24.81 21.02 13.74 14.41 25.52 32.48 35.01 53.7 12.51 27.88 19.71 57.66 27.18 90.89l.05.24c5.69 24.95 12.13 53.23 25.11 77.28 1.38 2.54 2.82 5 4.29 7.31 16.96 26.85 39.09 40.63 56.48 49.64 18.28 9.39 34.37 14.9 53.5 21.13 2.14.7 4.31 1.41 6.54 2.13 1.89.61 3.82 1.23 5.78 1.86 16.69 5.36 35.61 11.43 56.98 20.69 22.89 9.91 55.68 27.18 81.84 53.21 2.48 2.47 5 5.11 7.49 7.85 8.79 9.63 16.52 19.63 24 29.3 3.95 5.1 7.67 9.92 11.54 14.69 12.82 15.8 27.52 31.85 48.12 42.21 22.26 11.22 48.7 12.05 67.38 2.12l.47.88c-8.82 4.69-19.35 7.02-30.36 7.02Z" style="fill:#c23a97"/><path d="M802.82 554.81c-12.34 0-25.27-2.73-37.03-8.15-21.17-9.73-36.95-25.43-49.6-39.51-4.83-5.37-9.47-10.86-14.38-16.68-7.01-8.29-14.25-16.87-22.21-25.21-2.56-2.69-5.01-5.17-7.48-7.57-20.21-19.59-46.88-37.79-79.26-54.1-15.17-7.65-29.16-13.9-41.5-19.41-6.28-2.81-12.22-5.46-17.77-8.05-2.07-.97-4.09-1.92-6.06-2.88-19.58-9.38-33.7-17.44-48.74-27.81-17.97-12.48-36.71-27.59-52.06-53.34-1.39-2.32-2.77-4.79-4.1-7.34-11.53-22.23-18.48-47.82-24.62-70.4-.53-1.96-1.06-3.9-1.58-5.82-9.1-33.69-17.98-61.46-31.69-87.46-10.52-20.01-23.05-36.99-37.23-50.47-7.76-7.38-16.21-13.94-25.12-19.5-28.28-17.58-66.81-27.28-108.5-27.33h-.32c-39.35 0-79.05 7.9-113.19 15.3l-.21-.98c34.19-7.42 73.96-15.32 113.4-15.32h.32c41.87.05 80.59 9.81 109.03 27.48 8.97 5.59 17.47 12.2 25.28 19.63 14.26 13.55 26.85 30.62 37.42 50.73 13.76 26.08 22.65 53.91 31.77 87.66.52 1.92 1.05 3.86 1.58 5.82 6.12 22.53 13.06 48.06 24.54 70.2 1.32 2.53 2.69 4.98 4.07 7.29 15.25 25.59 33.9 40.62 51.77 53.04 14.99 10.34 29.07 18.38 48.6 27.73 1.97.95 3.99 1.91 6.05 2.87 5.54 2.59 11.47 5.24 17.75 8.04 12.35 5.52 26.35 11.77 41.54 19.43 32.47 16.35 59.22 34.61 79.51 54.27 2.48 2.41 4.94 4.89 7.51 7.6 7.97 8.37 15.23 16.96 22.25 25.26 4.91 5.81 9.55 11.3 14.36 16.65 12.58 14 28.27 29.62 49.27 39.27 22.04 10.16 48.22 10.77 66.68 1.55l.45.89c-8.85 4.42-19.45 6.62-30.52 6.62Z" style="fill:#c23a97"/><path d="M793.15 553.02c-11.93 0-24.4-2.44-36.01-7.29-21.57-8.99-37.76-23.52-50.75-36.56-6.07-6.08-11.9-12.41-18.08-19.12-6.26-6.79-12.72-13.81-19.61-20.72-2.59-2.61-5.04-5-7.51-7.32-19.41-18.3-44.6-36.36-76.99-55.19-7.96-4.63-15.42-8.85-22.64-12.94-12.62-7.14-23.52-13.31-33.22-19.47-1.92-1.21-3.79-2.43-5.58-3.62-15.42-10.18-28.12-20.15-43.82-34.42-13.42-12.27-31.79-29.08-47.26-56.69-1.31-2.32-2.61-4.78-3.88-7.31-9.93-19.98-16.72-41.57-23.28-62.46-1.3-4.14-2.58-8.22-3.86-12.2-11.67-36.64-22.51-61.82-36.27-84.22-11.58-18.9-24.91-34.89-39.63-47.52-7.99-6.87-16.6-12.97-25.58-18.13-36.4-20.83-78.53-25.28-107.46-25.35h-.75c-38.47 0-76.04 6.87-111.24 13.9l-.2-.98c35.48-7.09 73.35-14.02 112.19-13.92 29.05.07 71.37 4.54 107.95 25.48 9.04 5.19 17.7 11.33 25.74 18.24 14.8 12.7 28.2 28.76 39.83 47.75 13.8 22.47 24.68 47.72 36.37 84.44 1.28 3.99 2.56 8.07 3.87 12.21 6.55 20.85 13.32 42.4 23.22 62.31 1.26 2.51 2.55 4.96 3.85 7.27 15.39 27.48 33.7 44.22 47.06 56.44 15.66 14.23 28.32 24.18 43.7 34.33 1.79 1.19 3.66 2.4 5.57 3.61 9.68 6.14 20.57 12.3 33.18 19.44 7.22 4.09 14.69 8.31 22.65 12.94 32.46 18.87 57.7 36.97 77.17 55.33 2.47 2.33 4.93 4.73 7.53 7.35 6.89 6.92 13.37 13.95 19.63 20.75 6.17 6.69 11.99 13.02 18.05 19.09 12.92 12.96 29.01 27.41 50.43 36.34 22.16 9.27 47.45 9.64 65.99.97l.42.91c-9.06 4.23-19.69 6.34-30.79 6.34Z" style="fill:#c23a97"/><path d="M783.4 551.24c-11.5 0-23.49-2.15-34.91-6.43-22.17-8.29-39.38-22.31-51.9-33.6-7.74-6.97-15.16-14.39-23.02-22.25-5.08-5.08-10.33-10.32-15.75-15.53-2.64-2.54-5.11-4.86-7.53-7.08-23.86-21.87-51.08-40.52-74.72-56.29-19.63-13.1-38.17-25.47-52.45-37.36-1.74-1.45-3.46-2.92-5.1-4.37-15.38-13.49-27.18-27.11-38.9-41.04l-2.6-3.1c-11.87-14.14-26.65-31.73-39.86-56.93-1.22-2.31-2.44-4.76-3.65-7.28-8.19-17.22-14.66-35.5-20.91-53.18-2.45-6.94-4.77-13.49-7.17-19.92-12.33-33.39-25.31-59.12-40.85-80.98-12.6-17.78-26.75-32.78-42.04-44.57-8.22-6.35-16.98-11.99-26.05-16.75-28.91-15.14-65.71-23.22-106.42-23.37-37.98-.16-75.41 6.1-110.47 12.5l-.18-.98c35.1-6.41 72.58-12.68 110.65-12.52 40.87.15 77.83 8.27 106.88 23.49 9.12 4.79 17.93 10.46 26.2 16.85 15.37 11.86 29.58 26.92 42.24 44.78 15.59 21.93 28.6 47.73 40.97 81.21 2.4 6.44 4.72 13 7.18 19.94 6.25 17.65 12.7 35.91 20.87 53.08 1.2 2.52 2.43 4.95 3.64 7.25 13.17 25.11 27.9 42.65 39.74 56.75l2.6 3.1c11.7 13.89 23.47 27.48 38.8 40.93 1.63 1.44 3.34 2.91 5.08 4.35 14.24 11.85 32.75 24.21 52.36 37.29 23.67 15.79 50.93 34.46 74.84 56.38 2.43 2.23 4.9 4.55 7.55 7.09 5.43 5.21 10.69 10.46 15.77 15.54 7.85 7.84 15.26 15.25 22.98 22.21 12.45 11.23 29.57 25.17 51.58 33.41 22.26 8.35 46.67 8.5 65.3.39l.4.92c-9.29 4.04-19.99 6.06-31.14 6.06Z" style="fill:#c23a97"/><path d="M773.49 549.37c-11.12 0-22.65-1.83-33.66-5.49-17.71-5.87-34.07-15.32-53.05-30.64-10.06-8.12-19.67-17.03-29.85-26.47-3.29-3.05-6.62-6.14-10.02-9.25-2.76-2.53-5.23-4.77-7.56-6.84-19.67-17.51-41.39-33.91-60.56-48.38-4.07-3.07-8.04-6.07-11.89-9-23.08-17.59-37.75-30.24-49.03-42.31-1.57-1.68-3.12-3.4-4.62-5.12-12.73-14.54-21.89-28.8-32.48-45.31l-1.5-2.34c-1.98-3.09-4.05-6.28-6.21-9.58-9.7-14.87-20.69-31.72-31.47-53.79a267.98 267.98 0 0 1-3.43-7.26c-6.19-13.63-11.71-27.86-17.04-41.61-4.07-10.48-7.91-20.38-11.98-29.92-13.12-30.99-27.98-56.42-45.42-77.73-13.58-16.65-28.54-30.65-44.44-41.62-8.44-5.83-17.36-11-26.52-15.38-28.99-13.8-65.43-21.19-105.38-21.39-37.28-.2-74.25 5.39-108.95 11.11l-.16-.99c34.74-5.73 71.8-11.31 109.12-11.12 40.09.2 76.68 7.63 105.8 21.49 9.21 4.4 18.17 9.6 26.66 15.46 15.98 11.03 31.01 25.09 44.65 41.81 17.5 21.39 32.41 46.9 45.57 77.98 4.08 9.56 7.92 19.47 11.99 29.95 5.33 13.75 10.84 27.96 17.02 41.56 1.15 2.51 2.3 4.94 3.42 7.23 10.76 22.01 21.73 38.84 31.41 53.68 2.16 3.31 4.23 6.49 6.21 9.59l1.5 2.34c10.58 16.48 19.71 30.7 32.39 45.19 1.49 1.71 3.03 3.42 4.6 5.09 11.24 12.03 25.87 24.65 48.9 42.2 3.84 2.93 7.82 5.93 11.88 9 19.18 14.48 40.92 30.9 60.62 48.44 2.33 2.07 4.8 4.31 7.57 6.84 3.39 3.1 6.72 6.19 10.02 9.25 10.17 9.43 19.77 18.33 29.8 26.43 18.87 15.24 35.14 24.64 52.73 30.47 22 7.32 46.15 7.25 64.61-.18l.37.93c-9.42 3.79-20.31 5.69-31.64 5.69Z" style="fill:#c23a97"/><path d="M763.43 547.59c-10.6 0-21.57-1.54-32.25-4.64-17.94-5.18-35.16-13.98-54.19-27.69-13.43-9.67-26.19-20.79-39.71-32.57l-1.25-1.09c-2.5-2.18-5.03-4.38-7.58-6.59-12.06-10.41-24.56-20.65-36.65-30.55-11.91-9.75-23.16-18.96-33.52-27.94-20.42-17.7-34.91-32.72-45.6-47.27-1.42-1.93-2.81-3.9-4.14-5.86-10.3-15.17-17.66-30.5-25.44-46.72-1.19-2.49-2.4-5-3.63-7.54-3.37-6.99-7.11-14.33-11.08-22.1-6.63-12.97-14.14-27.67-21.81-44.61-1.03-2.27-2.08-4.63-3.21-7.23-3.67-8.5-7.26-17.23-10.74-25.68-6.14-14.94-12.49-30.39-19.22-44.3-14.09-29.29-30.44-53.66-49.99-74.49-14.52-15.51-30.29-28.52-46.85-38.67a211.121 211.121 0 0 0-26.99-14c-29.05-12.45-65.13-19.16-104.34-19.41-36.48-.23-73.08 4.67-107.43 9.71l-.15-.99c34.39-5.04 71.05-9.92 107.58-9.72 39.34.24 75.55 6.98 104.73 19.49 9.3 4 18.42 8.74 27.12 14.07 16.64 10.2 32.48 23.27 47.06 38.84 19.62 20.91 36.03 45.36 50.17 74.74 6.74 13.93 13.1 29.4 19.25 44.35 3.47 8.45 7.06 17.18 10.73 25.67 1.13 2.59 2.17 4.95 3.2 7.21 7.67 16.92 15.17 31.61 21.79 44.57 3.97 7.77 7.72 15.12 11.09 22.12 1.23 2.54 2.44 5.06 3.63 7.54 7.77 16.19 15.1 31.48 25.37 46.59 1.32 1.95 2.71 3.92 4.11 5.83 10.65 14.49 25.09 29.46 45.45 47.11 10.35 8.96 21.59 18.17 33.5 27.92 12.1 9.9 24.61 20.14 36.67 30.57 2.55 2.21 5.08 4.41 7.58 6.59l1.25 1.09c13.5 11.76 26.25 22.87 39.63 32.51 18.94 13.64 36.06 22.39 53.89 27.54 22.04 6.39 45.34 6.11 63.92-.76l.35.94c-9.77 3.61-20.82 5.42-32.3 5.42Z" style="fill:#c23a97"/><path d="M753.05 545.76c-10.07 0-20.43-1.24-30.51-3.73-18.46-4.55-36.05-12.41-55.34-24.73-15.01-9.59-29.08-20.85-42.05-31.6-2.52-2.09-5.06-4.21-7.61-6.35l-3.66-3.06c-22.31-18.67-45.39-37.98-64.24-56.53-18.62-18.33-32.42-35.41-42.17-52.23-1.26-2.17-2.49-4.39-3.65-6.61-8.63-16.38-14.35-32.78-20.4-50.16-1.23-3.53-2.47-7.1-3.75-10.71-6.41-18.13-14.59-37.7-24.07-60.36l-4.05-9.69c-1-2.38-1.99-4.78-2.99-7.2-9.55-23.29-19.42-47.38-30.89-68.42-15.08-27.81-32.93-51.12-54.57-71.26-15.41-14.37-31.98-26.39-49.26-35.72a233.15 233.15 0 0 0-27.46-12.63c-29.5-11.27-64.25-17.13-103.3-17.43-35.65-.26-71.89 3.96-105.91 8.31l-.13-.99c34.06-4.36 70.29-8.58 106.05-8.32 39.17.3 74.04 6.18 103.65 17.49 9.41 3.61 18.69 7.87 27.58 12.68 17.35 9.38 33.99 21.45 49.47 35.87 21.72 20.22 39.63 43.61 54.76 71.51 11.49 21.09 21.38 45.2 30.94 68.52 1 2.42 1.99 4.81 2.99 7.19l4.05 9.69c9.49 22.67 17.68 42.25 24.09 60.41 1.28 3.61 2.53 7.18 3.76 10.72 6.04 17.33 11.74 33.71 20.34 50.02 1.16 2.21 2.38 4.42 3.63 6.58 9.71 16.74 23.45 33.75 42 52.02 18.83 18.52 41.88 37.81 64.18 56.47l3.66 3.06c2.55 2.13 5.08 4.25 7.6 6.34 12.94 10.72 26.99 21.97 41.95 31.53 19.2 12.27 36.69 20.08 55.04 24.61 21.72 5.37 44.77 4.88 63.24-1.34l.32.95c-10.06 3.39-21.47 5.1-33.28 5.1Z" style="fill:#c23a97"/><path d="M742.38 544.01c-9.38 0-18.99-.97-28.49-2.91-18.78-3.83-37.26-10.95-56.49-21.78-13.41-7.54-27.12-16.93-43.15-29.54-2.42-1.9-4.92-3.9-7.63-6.1-27.61-22.38-49.08-42.23-65.63-60.69-17.09-19.07-30.12-38.31-38.73-57.18-1.1-2.4-2.16-4.88-3.17-7.36-7.3-17.95-11.6-35.86-16.16-54.82-1.01-4.19-2.02-8.4-3.07-12.65-5.75-23.27-13.39-47.28-23.36-73.39-.91-2.38-1.83-4.77-2.77-7.17-10.51-27.11-20.92-48.98-31.83-66.86-15.87-26.12-35.77-49.01-59.14-68.02-16.25-13.24-33.64-24.27-51.67-32.77-9.03-4.26-18.42-8.05-27.93-11.25-29.48-9.9-63.88-15.1-102.26-15.44-34.84-.32-69.27 3.09-104.39 6.91L76.4 22c35.16-3.83 69.61-7.24 104.51-6.92 38.48.35 72.99 5.56 102.57 15.5 9.54 3.21 18.97 7.02 28.03 11.3 18.11 8.54 35.56 19.61 51.87 32.9 23.46 19.09 43.43 42.06 59.36 68.28 10.94 17.93 21.38 39.86 31.91 67.02.94 2.4 1.86 4.8 2.77 7.18 9.99 26.15 17.64 50.2 23.4 73.51 1.06 4.25 2.07 8.47 3.08 12.66 4.55 18.92 8.84 36.8 16.11 54.68 1 2.47 2.06 4.93 3.15 7.32 8.57 18.78 21.54 37.93 38.57 56.93 16.51 18.42 37.94 38.24 65.51 60.58 2.71 2.2 5.21 4.19 7.62 6.09 15.99 12.58 29.66 21.93 43.02 29.45 19.14 10.77 37.52 17.86 56.2 21.67 21.67 4.43 43.89 3.75 62.55-1.92l.29.96c-10.62 3.23-22.39 4.85-34.55 4.86Z" style="fill:#c23a97"/><path d="M731.18 542.29c-8.52 0-17.22-.7-25.94-2.12-19.41-3.13-38.26-9.29-57.63-18.83-14.57-7.17-29.04-16.15-44.24-27.47-2.52-1.88-5.1-3.85-7.66-5.86-24.93-19.54-46.84-40.9-63.35-61.79-15.93-20.16-27.8-41.07-35.29-62.13-.93-2.63-1.84-5.36-2.68-8.1-6.11-19.82-9.08-39.54-12.23-60.42-.68-4.53-1.37-9.09-2.09-13.66-4.53-28.79-10.44-53.17-18.6-76.74-.82-2.38-1.67-4.76-2.54-7.14-8.94-24.5-19.97-46.47-32.76-65.3-16.91-24.96-38.35-46.76-63.72-64.79-17.04-12.13-35.24-22.16-54.08-29.82-9.19-3.74-18.74-7.06-28.39-9.88-29.38-8.54-63.44-13.06-101.22-13.46-33.91-.36-68.01 2.4-102.87 5.51l-.09-1c34.89-3.11 69.02-5.87 102.97-5.52 37.87.4 72.02 4.94 101.49 13.5 9.69 2.82 19.27 6.16 28.49 9.91 18.91 7.69 37.17 17.77 54.28 29.94 25.46 18.1 46.98 39.98 63.96 65.04 12.84 18.9 23.9 40.95 32.87 65.52.88 2.39 1.72 4.78 2.55 7.16 8.18 23.62 14.11 48.06 18.65 76.91.72 4.58 1.41 9.13 2.09 13.67 3.14 20.84 6.11 40.53 12.19 60.28.84 2.73 1.74 5.45 2.67 8.06 7.45 20.96 19.27 41.76 35.13 61.84 16.46 20.83 38.31 42.14 63.18 61.63 2.55 2 5.12 3.97 7.64 5.84 15.15 11.28 29.57 20.24 44.09 27.38 19.29 9.49 38.04 15.62 57.35 18.74 21.54 3.49 42.93 2.62 61.86-2.5l.26.96c-11.4 3.09-23.68 4.64-36.34 4.64Z" style="fill:#c23a97"/><path d="M718.88 540.57c-7.39 0-14.85-.44-22.29-1.33-19.79-2.36-39.57-7.7-58.78-15.87-15.5-6.59-30.75-15.14-45.34-25.41-2.55-1.79-5.13-3.68-7.68-5.61-23.88-18.07-45-39.82-61.07-62.9-14.84-21.32-25.55-43.88-31.84-67.07-.78-2.87-1.52-5.84-2.2-8.84-4.97-21.96-6.68-44.78-8.34-66.85-.35-4.61-.69-9.22-1.07-13.84-1.92-23.75-5.06-51.83-13.85-80.09-.75-2.41-1.53-4.8-2.32-7.11-7.92-23.14-19.26-44.58-33.69-63.74-17.99-23.91-40.97-44.62-68.29-61.55-17.8-11.03-36.8-20.08-56.49-26.87-9.33-3.22-19.04-6.08-28.86-8.5-29.59-7.27-62.36-11.02-100.19-11.48-32.85-.39-65.33 1.63-101.36 4.11l-.07-1c36.04-2.49 68.56-4.51 101.44-4.12 37.9.45 70.75 4.22 100.41 11.51 9.86 2.42 19.6 5.29 28.95 8.52 19.76 6.82 38.83 15.9 56.69 26.97 27.43 17 50.49 37.79 68.56 61.8 14.5 19.24 25.89 40.78 33.84 64.02.8 2.32 1.58 4.72 2.33 7.14 8.81 28.35 11.97 56.51 13.89 80.31.38 4.62.72 9.24 1.07 13.85 1.65 22.03 3.36 44.82 8.32 66.7.68 2.99 1.41 5.95 2.19 8.8 6.26 23.08 16.93 45.54 31.7 66.76 16.01 23 37.05 44.67 60.86 62.67 2.54 1.92 5.12 3.8 7.65 5.59 14.53 10.23 29.72 18.75 45.15 25.31 19.13 8.13 38.81 13.45 58.51 15.8 20.97 2.51 42.12 1.44 61.18-3.08l.23.97c-12.4 2.94-25.69 4.43-39.24 4.43Z" style="fill:#c23a97"/><path d="M704.87 539.03c-43.51 0-86.78-12.75-123.28-36.99-48.81-32.4-83.4-83.94-94.9-141.38-5.49-27.4-5.77-56-6.05-83.67-.35-34.62-.71-70.42-11.35-103.75C448 106.57 385.8 52.58 302.9 28.81 228.53 7.5 150.27 11.27 74.58 14.93l-.05-1c75.76-3.66 154.11-7.44 228.64 13.93 38.35 11 73.77 29.33 102.43 53.01 31.31 25.87 53.65 57.7 64.63 92.07 10.69 33.47 11.05 69.35 11.4 104.05.28 27.62.56 56.18 6.03 83.48 11.45 57.19 45.88 108.49 94.47 140.74 48.59 32.26 109.23 44.08 166.38 32.44l.2.98a219.62 219.62 0 0 1-43.85 4.4Z" style="fill:#c23a97"/></svg>